<svg width="25" height="26" viewBox="0 0 25 26" fill="none" xmlns="http://www.w3.org/2000/svg">
<path d="M6.25 6.56705H7.07093C7.22555 6.56705 7.30286 6.56705 7.36508 6.59499C7.41991 6.61962 7.46637 6.65923 7.49893 6.70909C7.53587 6.76568 7.54681 6.8409 7.56868 6.99135L7.86615 9.03801M7.86615 9.03801L8.52726 13.814C8.61116 14.4201 8.65311 14.7231 8.80053 14.9512C8.93042 15.1522 9.11665 15.3121 9.3368 15.4115C9.58663 15.5243 9.89779 15.5243 10.5201 15.5243H15.8988C16.4912 15.5243 16.7874 15.5243 17.0294 15.4195C17.2429 15.3272 17.4259 15.1782 17.5582 14.9895C17.7082 14.7753 17.7636 14.4894 17.8744 13.9174L18.7064 9.62467C18.7454 9.42336 18.7649 9.3227 18.7366 9.24402C18.7118 9.175 18.6629 9.11688 18.5985 9.08003C18.5252 9.03801 18.4209 9.03801 18.2124 9.03801H7.86615ZM11.278 18.3041C11.278 18.6453 10.9966 18.9219 10.6495 18.9219C10.3024 18.9219 10.021 18.6453 10.021 18.3041C10.021 17.9629 10.3024 17.6864 10.6495 17.6864C10.9966 17.6864 11.278 17.9629 11.278 18.3041ZM16.306 18.3041C16.306 18.6453 16.0246 18.9219 15.6775 18.9219C15.3304 18.9219 15.049 18.6453 15.049 18.3041C15.049 17.9629 15.3304 17.6864 15.6775 17.6864C16.0246 17.6864 16.306 17.9629 16.306 18.3041Z" stroke="#505050" stroke-linecap="round" stroke-linejoin="round"/>
<path d="M24.5 12.7445C24.5 19.2862 19.1329 24.5993 12.5 24.5993C5.86706 24.5993 0.5 19.2862 0.5 12.7445C0.5 6.20272 5.86706 0.889648 12.5 0.889648C19.1329 0.889648 24.5 6.20272 24.5 12.7445Z" stroke="#505050"/>
</svg>
