<svg width="16" height="16" viewBox="0 0 16 16" fill="none" xmlns="http://www.w3.org/2000/svg">
<path d="M8 10.1728C5.6804 10.1728 3.8 8.3142 3.8 6.02154V2.17783C3.8 1.8915 3.8 1.74833 3.84222 1.6337C3.91298 1.44152 4.06615 1.29013 4.26059 1.22018C4.37657 1.17846 4.52142 1.17846 4.81111 1.17846H11.1889C11.4786 1.17846 11.6234 1.17846 11.7394 1.22018C11.9339 1.29013 12.087 1.44152 12.1578 1.6337C12.2 1.74833 12.2 1.8915 12.2 2.17783V6.02154C12.2 8.3142 10.3196 10.1728 8 10.1728ZM8 10.1728V12.2484M12.2 2.5622H13.95C14.2762 2.5622 14.4392 2.5622 14.5679 2.61486C14.7394 2.68508 14.8757 2.81977 14.9467 2.9893C15 3.11645 15 3.27763 15 3.6V3.94594C15 4.58935 15 4.91106 14.9284 5.17501C14.7343 5.89129 14.1682 6.45076 13.4435 6.64269C13.1765 6.71341 12.851 6.71341 12.2 6.71341M3.8 2.5622H2.05C1.72384 2.5622 1.56076 2.5622 1.43212 2.61486C1.2606 2.68508 1.12433 2.81977 1.05328 2.9893C1 3.11645 1 3.27763 1 3.6V3.94594C1 4.58935 1 4.91106 1.07156 5.17501C1.26574 5.89129 1.83179 6.45076 2.55648 6.64269C2.82353 6.71341 3.14902 6.71341 3.8 6.71341M4.81111 15.0158H11.1889C11.3607 15.0158 11.5 14.8782 11.5 14.7083C11.5 13.3497 10.3857 12.2484 9.01111 12.2484H6.98889C5.61431 12.2484 4.5 13.3497 4.5 14.7083C4.5 14.8782 4.63929 15.0158 4.81111 15.0158Z" stroke="white" stroke-linecap="round" stroke-linejoin="round"/>
</svg>
