<svg width="28" height="28" viewBox="0 0 28 28" fill="none" xmlns="http://www.w3.org/2000/svg">
<path d="M14 16.1728C11.6804 16.1728 9.8 14.3142 9.8 12.0215V8.17783C9.8 7.8915 9.8 7.74833 9.84222 7.6337C9.91298 7.44152 10.0661 7.29013 10.2606 7.22018C10.3766 7.17846 10.5214 7.17846 10.8111 7.17846H17.1889C17.4786 7.17846 17.6234 7.17846 17.7394 7.22018C17.9339 7.29013 18.087 7.44152 18.1578 7.6337C18.2 7.74833 18.2 7.8915 18.2 8.17783V12.0215C18.2 14.3142 16.3196 16.1728 14 16.1728ZM14 16.1728V18.2484M18.2 8.5622H19.95C20.2762 8.5622 20.4392 8.5622 20.5679 8.61486C20.7394 8.68508 20.8757 8.81977 20.9467 8.9893C21 9.11645 21 9.27763 21 9.6V9.94594C21 10.5894 21 10.9111 20.9284 11.175C20.7343 11.8913 20.1682 12.4508 19.4435 12.6427C19.1765 12.7134 18.851 12.7134 18.2 12.7134M9.8 8.5622H8.05C7.72384 8.5622 7.56076 8.5622 7.43212 8.61486C7.2606 8.68508 7.12433 8.81977 7.05328 8.9893C7 9.11645 7 9.27763 7 9.6V9.94594C7 10.5894 7 10.9111 7.07156 11.175C7.26574 11.8913 7.83179 12.4508 8.55648 12.6427C8.82353 12.7134 9.14902 12.7134 9.8 12.7134M10.8111 21.0158H17.1889C17.3607 21.0158 17.5 20.8782 17.5 20.7083C17.5 19.3497 16.3857 18.2484 15.0111 18.2484H12.9889C11.6143 18.2484 10.5 19.3497 10.5 20.7083C10.5 20.8782 10.6393 21.0158 10.8111 21.0158Z" stroke="white" stroke-linecap="round" stroke-linejoin="round"/>
<path d="M27.5 14.0971C27.5 21.4577 21.4614 27.4345 14 27.4345C6.53863 27.4345 0.5 21.4577 0.5 14.0971C0.5 6.73661 6.53863 0.759766 14 0.759766C21.4614 0.759766 27.5 6.73661 27.5 14.0971Z" stroke="white"/>
</svg>
