<svg width="29" height="28" viewBox="0 0 29 28" fill="none" xmlns="http://www.w3.org/2000/svg">
<path d="M12.8447 8.71531V5.02534H15.7301V8.71531C15.7936 9.07772 16.0526 9.08173 16.5546 9.24245C17.8546 9.76959 18.3037 10.4459 18.2985 11.5816V21.4655C18.2336 21.7105 18.1324 21.7524 17.9544 21.826L17.9497 21.8279H10.5934C10.4393 21.74 10.3603 21.6615 10.2446 21.4655V11.5816C10.2136 10.5734 10.4168 10.0983 11.6398 9.37423C12.3056 9.11066 12.813 9.04477 12.8447 8.71531Z" stroke="#C7F636"/>
<path d="M27.8697 13.9208C27.8697 21.278 21.7899 27.2582 14.2702 27.2582C6.75048 27.2582 0.670654 21.278 0.670654 13.9208C0.670654 6.56357 6.75048 0.58342 14.2702 0.58342C21.7899 0.58342 27.8697 6.56357 27.8697 13.9208Z" stroke="#C7F636"/>
</svg>
