<svg width="16" height="16" viewBox="0 0 16 16" fill="none" xmlns="http://www.w3.org/2000/svg">
<path d="M3.32141 13.0643C3.74723 12.0611 4.74145 11.3574 5.9 11.3574H10.1C11.2586 11.3574 12.2528 12.0611 12.6786 13.0643M10.8 6.10742C10.8 7.65382 9.5464 8.90742 8 8.90742C6.4536 8.90742 5.2 7.65382 5.2 6.10742C5.2 4.56102 6.4536 3.30742 8 3.30742C9.5464 3.30742 10.8 4.56102 10.8 6.10742ZM15 7.85742C15 11.7234 11.866 14.8574 8 14.8574C4.13401 14.8574 1 11.7234 1 7.85742C1 3.99143 4.13401 0.857422 8 0.857422C11.866 0.857422 15 3.99143 15 7.85742Z" stroke="white" stroke-linecap="round" stroke-linejoin="round"/>
</svg>
