<svg width="28" height="28" viewBox="0 0 28 28" fill="none" xmlns="http://www.w3.org/2000/svg">
<path d="M27.5 13.9916C27.5 21.3521 21.4614 27.3289 14 27.3289C6.53863 27.3289 0.5 21.3521 0.5 13.9916C0.5 6.63101 6.53863 0.654171 14 0.654171C21.4614 0.654171 27.5 6.63101 27.5 13.9916Z" stroke="white"/>
<path d="M9.33333 20.9102H11.6667M16.3333 20.9102H18.6667M18.2778 9.76346V15.9134M7 9.53284L7 16.144C7 17.0051 7 17.4356 7.16955 17.7645C7.31868 18.0538 7.55665 18.289 7.84935 18.4364C8.1821 18.604 8.6177 18.604 9.48889 18.604L18.5111 18.604C19.3823 18.604 19.8179 18.604 20.1507 18.4364C20.4433 18.289 20.6813 18.0538 20.8305 17.7645C21 17.4356 21 17.0051 21 16.144V9.53284C21 8.67176 21 8.24123 20.8305 7.91234C20.6813 7.62304 20.4433 7.38784 20.1507 7.24043C19.8179 7.07286 19.3823 7.07286 18.5111 7.07286L9.48889 7.07286C8.6177 7.07286 8.1821 7.07286 7.84935 7.24043C7.55665 7.38784 7.31868 7.62304 7.16955 7.91234C7 8.24123 7 8.67176 7 9.53284ZM13.6111 12.8384C13.6111 13.8998 12.7406 14.7603 11.6667 14.7603C10.5928 14.7603 9.72222 13.8998 9.72222 12.8384C9.72222 11.777 10.5928 10.9166 11.6667 10.9166C12.7406 10.9166 13.6111 11.777 13.6111 12.8384Z" stroke="white" stroke-linecap="round" stroke-linejoin="round"/>
</svg>
